<?xml version="1.0" encoding="UTF-8" standalone="no"?>
<svg
   width="1600"
   height="1000"
   viewBox="0 0 1600 1000"
   version="1.1"
   id="svg11"
   xmlns="http://www.w3.org/2000/svg"
   xmlns:svg="http://www.w3.org/2000/svg">
  <defs
     id="defs6">
    <linearGradient
       id="tealGrad"
       x1="0"
       y1="1"
       x2="1"
       y2="0">
      <stop
         offset="0"
         stop-color="#0ca7b4"
         id="stop1" />
      <stop
         offset="0.55"
         stop-color="#29cbd0"
         id="stop2" />
      <stop
         offset="1"
         stop-color="#45e4eb"
         id="stop3" />
    </linearGradient>
    <linearGradient
       id="navyGrad"
       x1="0"
       y1="1"
       x2="1"
       y2="0">
      <stop
         offset="0"
         stop-color="#05283f"
         id="stop4" />
      <stop
         offset="0.55"
         stop-color="#073a59"
         id="stop5" />
      <stop
         offset="1"
         stop-color="#0d5578"
         id="stop6" />
    </linearGradient>
    <filter
       id="softShadow"
       x="-20%"
       y="-20%"
       width="140%"
       height="140%">
      <feDropShadow
         dx="0"
         dy="12"
         stdDeviation="8"
         flood-color="#0a4254"
         flood-opacity="0.20" />
    </filter>
  </defs>
  <rect
     width="1600"
     height="1000"
     fill="#ffffff"
     id="rect6" />
  <!-- Bridge Point Maintenance Option 2 vector rebuild -->
  <g
     id="mark">
    <!-- left teal angled bar -->
    <polygon
       points="90,285 150,285 315,548 258,612"
       fill="url(#tealGrad)"
       id="polygon6" />
    <!-- inner dark left bar -->
    <polygon
       points="165,285 232,285 330,430 408,260 492,260 332,565"
       fill="url(#navyGrad)"
       id="polygon7" />
    <!-- main teal slash -->
    <polygon
       points="505,215 592,215 260,760 168,760"
       fill="url(#tealGrad)"
       id="polygon8" />
    <!-- right dark rear slash -->
    <polygon
       points="426,555 550,760 456,760 374,621"
       fill="url(#navyGrad)"
       opacity="0.98"
       id="polygon9" />
    <!-- small teal face on lower crossing -->
    <polygon
       points="388,601 458,760 548,760 430,555"
       fill="url(#tealGrad)"
       id="polygon10" />
  </g>
  <g
     id="wordmark">
    <path
       d="m 553.699,538.015 q 3.149,0 5.123,-0.799 2.021,-0.799 3.149,-2.068 1.128,-1.269 1.551,-2.867 0.423,-1.598 0.423,-3.243 0,-1.88 -0.517,-3.384 -0.47,-1.504 -1.692,-2.538 -1.175,-1.034 -3.149,-1.598 -1.974,-0.564 -4.982,-0.564 h -11.092 v 17.061 z m -11.186,-44.603 v 16.92 h 8.272 q 2.632,0 4.747,-0.376 2.115,-0.376 3.572,-1.316 1.504,-0.94 2.256,-2.585 0.799,-1.645 0.799,-4.136 0,-2.444 -0.611,-4.042 -0.611,-1.645 -1.88,-2.632 -1.269,-0.987 -3.243,-1.41 -1.927,-0.423 -4.606,-0.423 z m 9.306,-11.891 q 7.097,0 12.079,1.316 4.982,1.316 8.131,3.713 3.149,2.397 4.559,5.828 1.457,3.431 1.457,7.661 0,2.303 -0.658,4.465 -0.658,2.115 -2.068,3.995 -1.41,1.833 -3.619,3.384 -2.209,1.551 -5.311,2.679 6.768,1.645 10.011,5.311 3.243,3.666 3.243,9.494 0,4.371 -1.692,8.131 -1.692,3.76 -4.982,6.58 -3.243,2.773 -8.037,4.371 Q 560.138,550 553.981,550 h -27.354 v -68.479 z m 63.01903,32.195 q 3.243,0 5.499,-0.799 2.303,-0.846 3.76,-2.303 1.457,-1.457 2.115,-3.384 0.658,-1.974 0.658,-4.23 0,-4.512 -2.961,-7.05 -2.914,-2.538 -9.071,-2.538 h -6.392 v 20.304 z m 33.746,36.284 h -14.382 q -3.995,0 -5.734,-3.008 l -11.374,-19.881 q -0.799,-1.269 -1.786,-1.833 -0.987,-0.611 -2.82,-0.611 h -4.042 V 550 h -15.886 v -68.479 h 22.278 q 7.426,0 12.643,1.551 5.264,1.504 8.554,4.23 3.337,2.726 4.841,6.439 1.504,3.713 1.504,8.084 0,3.337 -0.893,6.298 -0.893,2.961 -2.632,5.499 -1.739,2.491 -4.324,4.465 -2.538,1.974 -5.875,3.243 1.551,0.799 2.914,2.021 1.363,1.175 2.444,2.82 z m 24.76095,0 h -15.98 v -68.479 h 15.98 z m 78.38807,-34.263 q 0,7.426 -2.585,13.724 -2.538,6.251 -7.191,10.857 -4.653,4.559 -11.233,7.144 -6.533,2.538 -14.523,2.538 h -26.602 v -68.479 h 26.602 q 7.99,0 14.523,2.585 6.58,2.585 11.233,7.144 4.653,4.559 7.191,10.857 2.585,6.251 2.585,13.63 z m -16.262,0 q 0,-5.076 -1.316,-9.165 -1.316,-4.089 -3.807,-6.909 -2.444,-2.867 -6.016,-4.371 -3.572,-1.551 -8.131,-1.551 h -10.622 v 44.039 h 10.622 q 4.559,0 8.131,-1.504 3.572,-1.551 6.016,-4.371 2.491,-2.867 3.807,-6.956 1.316,-4.089 1.316,-9.212 z m 61.56196,-1.222 h 24.346 v 28.905 q -5.264,3.854 -11.233,5.593 -5.922,1.739 -12.408,1.739 -8.46,0 -15.416,-2.632 -6.909,-2.679 -11.844,-7.332 -4.935,-4.7 -7.614,-11.092 -2.679,-6.439 -2.679,-13.959 0,-7.661 2.538,-14.053 2.538,-6.439 7.238,-11.092 4.747,-4.653 11.421,-7.238 6.721,-2.585 14.993,-2.585 4.277,0 8.037,0.705 3.76,0.705 6.909,1.927 3.196,1.222 5.828,2.914 2.632,1.692 4.7,3.666 l -4.606,7.003 q -1.081,1.645 -2.82,2.021 -1.692,0.376 -3.666,-0.846 -1.88,-1.128 -3.572,-1.927 -1.645,-0.846 -3.384,-1.363 -1.739,-0.517 -3.666,-0.752 -1.927,-0.235 -4.324,-0.235 -4.465,0 -8.037,1.598 -3.572,1.551 -6.11,4.418 -2.491,2.867 -3.854,6.909 -1.363,3.995 -1.363,8.93 0,5.452 1.504,9.682 1.504,4.23 4.23,7.144 2.773,2.914 6.58,4.465 3.854,1.504 8.507,1.504 2.867,0 5.17,-0.564 2.35,-0.564 4.559,-1.504 v -10.387 h -6.768 q -1.504,0 -2.35,-0.799 -0.846,-0.799 -0.846,-2.021 z m 53.99498,-20.774 v 15.98 h 21.526 v 11.75 h -21.526 v 16.309 h 28.106 V 550 h -44.086 v -68.479 h 44.086 v 12.22 z m 89.75408,21.385 q 6.204,0 8.93,-2.961 2.726,-2.961 2.726,-8.272 0,-2.35 -0.705,-4.277 -0.705,-1.927 -2.162,-3.29 -1.41,-1.41 -3.619,-2.162 -2.162,-0.752 -5.17,-0.752 h -8.272 v 21.714 z m 0,-33.605 q 7.238,0 12.408,1.739 5.217,1.692 8.554,4.7 3.384,3.008 4.982,7.097 1.598,4.089 1.598,8.836 0,5.123 -1.645,9.4 -1.645,4.277 -5.029,7.332 -3.384,3.055 -8.601,4.794 -5.17,1.692 -12.267,1.692 h -8.272 V 550 h -15.886 v -68.479 z m 105.83593,34.216 q 0,7.426 -2.585,13.818 -2.538,6.392 -7.191,11.139 -4.653,4.7 -11.233,7.379 -6.533,2.679 -14.523,2.679 -7.99,0 -14.56996,-2.679 -6.58,-2.679 -11.28,-7.379 -4.653,-4.747 -7.238,-11.139 -2.538,-6.392 -2.538,-13.818 0,-7.426 2.538,-13.818 2.585,-6.392 7.238,-11.092 4.7,-4.7 11.28,-7.379 6.57996,-2.679 14.56996,-2.679 7.99,0 14.523,2.726 6.58,2.679 11.233,7.379 4.653,4.7 7.191,11.092 2.585,6.392 2.585,13.771 z m -16.262,0 q 0,-5.076 -1.316,-9.118 -1.316,-4.089 -3.807,-6.909 -2.444,-2.82 -6.016,-4.324 -3.572,-1.504 -8.131,-1.504 -4.606,0 -8.225,1.504 -3.57196,1.504 -6.06296,4.324 -2.444,2.82 -3.76,6.909 -1.316,4.042 -1.316,9.118 0,5.123 1.316,9.212 1.316,4.042 3.76,6.862 2.491,2.82 6.06296,4.324 3.619,1.457 8.225,1.457 4.559,0 8.131,-1.457 3.572,-1.504 6.016,-4.324 2.491,-2.82 3.807,-6.862 1.316,-4.089 1.316,-9.212 z M 1074.9511,550 h -15.98 v -68.479 h 15.98 z m 76.0381,-68.479 V 550 h -8.272 q -1.833,0 -3.102,-0.564 -1.222,-0.611 -2.444,-2.068 l -32.289,-40.843 q 0.188,1.833 0.235,3.572 0.094,1.692 0.094,3.196 V 550 h -14.006 v -68.479 h 8.366 q 1.034,0 1.739,0.094 0.705,0.094 1.269,0.376 0.564,0.235 1.081,0.705 0.517,0.47 1.175,1.269 l 32.571,41.125 q -0.235,-1.974 -0.329,-3.807 -0.094,-1.88 -0.094,-3.525 v -36.237 z m 65.4631,12.596 h -19.27 V 550 h -15.886 v -55.883 h -19.27 v -12.596 h 54.426 z"
       id="text10"
       style="font-weight:900;font-size:94px;font-family:Lato, Montserrat, Arial, sans-serif;letter-spacing:3;fill:#24c4ca"
       aria-label="BRIDGE POINT" />
    <path
       d="M 591.0835,607.6925 V 665 h -3.6045 v -48.843 q 0,-1.053 0.1215,-2.2275 L 565.042,653.984 q -0.567,1.053 -1.62,1.053 h -0.648 q -1.053,0 -1.62,-1.053 l -23.166,-40.1355 q 0.1215,1.215 0.1215,2.3085 V 665 h -3.645 v -57.3075 h 2.8755 q 0.567,0 0.891,0.1215 0.324,0.1215 0.648,0.648 l 23.1255,39.852 q 0.6075,1.134 1.053,2.43 0.243,-0.648 0.5265,-1.2555 0.2835,-0.648 0.6075,-1.215 L 586.669,608.462 q 0.324,-0.5265 0.648,-0.648 0.3645,-0.1215 0.9315,-0.1215 z m 63.83058,36.4905 -11.664,-28.9575 q -0.6075,-1.4175 -1.1745,-3.402 -0.243,0.972 -0.5265,1.863 -0.2835,0.8505 -0.6075,1.5795 l -11.664,28.917 z M 667.59058,665 h -3.1995 q -0.567,0 -0.9315,-0.2835 -0.3645,-0.324 -0.567,-0.81 l -6.723,-16.6455 h -28.1475 l -6.723,16.6455 q -0.162,0.4455 -0.567,0.7695 -0.405,0.324 -0.972,0.324 h -3.159 l 23.4495,-57.3075 h 4.0905 z m 29.68904,0 h -4.1715 v -57.3075 h 4.1715 z m 77.15499,-57.3075 V 665 h -1.944 q -0.5265,0 -0.891,-0.162 -0.324,-0.2025 -0.648,-0.648 l -37.2195,-49.734 q 0.1215,1.215 0.1215,2.3085 V 665 h -3.645 v -57.3075 h 2.0655 q 0.567,0 0.8505,0.162 0.324,0.1215 0.6885,0.6075 l 37.1385,49.6125 q -0.1215,-1.215 -0.1215,-2.3085 v -48.0735 z m 70.18894,3.5235 h -20.1285 V 665 h -4.1715 v -53.784 h -20.25 v -3.5235 h 44.55 z m 60.06405,50.3415 -0.081,3.4425 h -34.344 v -57.3075 h 34.344 v 3.4425 h -30.1725 v 23.166 h 25.11 v 3.3615 h -25.11 v 23.895 z m 72.78098,-53.865 V 665 h -1.944 q -0.5265,0 -0.891,-0.162 -0.324,-0.2025 -0.648,-0.648 l -37.2195,-49.734 q 0.1215,1.215 0.1215,2.3085 V 665 h -3.645 v -57.3075 h 2.0655 q 0.567,0 0.8505,0.162 0.324,0.1215 0.6885,0.6075 l 37.1385,49.6125 q -0.1215,-1.215 -0.1215,-2.3085 v -48.0735 z m 63.83042,36.4905 -11.664,-28.9575 q -0.6075,-1.4175 -1.1745,-3.402 -0.243,0.972 -0.5265,1.863 -0.2835,0.8505 -0.6075,1.5795 l -11.664,28.917 z M 1053.9755,665 h -3.1995 q -0.567,0 -0.9315,-0.2835 -0.3645,-0.324 -0.567,-0.81 l -6.723,-16.6455 h -28.1475 l -6.723,16.6455 q -0.162,0.4455 -0.567,0.7695 -0.405,0.324 -0.972,0.324 h -3.159 l 23.4495,-57.3075 h 4.0905 z m 69.7436,-57.3075 V 665 h -1.944 q -0.5265,0 -0.891,-0.162 -0.324,-0.2025 -0.648,-0.648 l -37.2195,-49.734 q 0.1215,1.215 0.1215,2.3085 V 665 h -3.645 v -57.3075 h 2.0655 q 0.567,0 0.8505,0.162 0.324,0.1215 0.6885,0.6075 l 37.1385,49.6125 q -0.1215,-1.215 -0.1215,-2.3085 v -48.0735 z m 74.2794,47.6685 q 0.405,0 0.6885,0.2835 l 1.62,1.7415 q -1.782,1.9035 -3.888,3.4425 -2.0655,1.4985 -4.5765,2.592 -2.4705,1.053 -5.4675,1.62 -2.9565,0.6075 -6.5205,0.6075 -5.9535,0 -10.935,-2.0655 -4.941,-2.106 -8.505,-5.913 -3.564,-3.8475 -5.5485,-9.2745 -1.944,-5.427 -1.944,-12.069 0,-6.5205 2.025,-11.907 2.025,-5.3865 5.67,-9.234 3.645,-3.888 8.748,-5.994 5.103,-2.1465 11.259,-2.1465 5.8725,0 10.4085,1.8225 4.536,1.8225 8.262,5.1435 l -1.2555,1.8225 q -0.324,0.486 -1.0125,0.486 -0.486,0 -1.5795,-0.891 -1.0935,-0.891 -3.0375,-1.944 -1.944,-1.0935 -4.86,-1.9845 -2.8755,-0.891 -6.9255,-0.891 -5.184,0 -9.5175,1.782 -4.293,1.782 -7.4115,5.103 -3.078,3.321 -4.8195,8.1 -1.7415,4.779 -1.7415,10.7325 0,6.075 1.7415,10.854 1.782,4.779 4.86,8.1 3.078,3.2805 7.2495,5.0625 4.212,1.7415 9.072,1.7415 3.078,0 5.4675,-0.405 2.43,-0.405 4.455,-1.215 2.025,-0.81 3.7665,-1.9845 1.7415,-1.1745 3.4425,-2.754 0.2025,-0.162 0.405,-0.243 0.2025,-0.1215 0.405,-0.1215 z m 63.8305,6.1965 -0.081,3.4425 h -34.344 v -57.3075 h 34.344 v 3.4425 h -30.1725 v 23.166 h 25.11 v 3.3615 h -25.11 v 23.895 z"
       id="text11"
       style="font-weight:300;font-size:81px;font-family:Lato, Montserrat, Arial, sans-serif;letter-spacing:16;fill:#063b5a"
       aria-label="MAINTENANCE" />
  </g>
</svg>
